<svg width="30" height="30" viewBox="0 0 30 30" fill="none" xmlns="http://www.w3.org/2000/svg">
<path d="M26.1846 20.1375C26.6407 20.5921 26.9878 21.1443 27.1997 21.7524C27.4116 22.3605 27.4828 23.0088 27.408 23.6484C27.3565 24.075 26.8268 24.2438 26.5221 23.9391L24.4268 21.8438C24.0377 21.4547 23.4002 21.45 23.0018 21.8484L21.8486 23.0016C21.4596 23.3906 21.4549 24.0328 21.844 24.4266L23.9393 26.5219C24.244 26.8266 24.0752 27.3656 23.6486 27.4125C22.2002 27.5766 20.6908 27.0047 19.7158 25.6922C19.3722 25.2215 19.1285 24.6856 18.9995 24.1173C18.8705 23.549 18.8591 22.9604 18.9658 22.3875C19.0877 21.7219 18.9002 21.0328 18.4221 20.5547L9.4502 11.5828C8.96739 11.1 8.28302 10.9172 7.61739 11.0391C6.48302 11.25 5.27364 10.9969 4.3127 10.2891C3.70609 9.84211 3.22778 9.2434 2.92581 8.55307C2.62384 7.86274 2.50885 7.1051 2.59239 6.35625C2.64395 5.92969 3.17833 5.75625 3.48302 6.06094L5.57833 8.15625C5.97208 8.55 6.61426 8.54532 7.00802 8.15625L8.16114 7.00313C8.55958 6.60469 8.55489 5.97188 8.16114 5.57344L6.06583 3.47813C5.76583 3.17813 5.92989 2.64375 6.36114 2.59688C7.60802 2.45157 8.91114 2.85938 9.86739 3.81563C10.3578 4.30405 10.7217 4.90468 10.9275 5.56548C11.1333 6.22629 11.1749 6.92731 11.0486 7.60782C10.9268 8.28282 11.1096 8.97188 11.5924 9.45469L20.5549 18.4172C21.0377 18.9 21.7268 19.0828 22.3971 18.9609C23.7283 18.7125 25.158 19.1063 26.1846 20.1375Z" fill="#C6C1C1"/>
<path d="M20.0952 19.3781L20.2733 20.0109C20.3155 20.1656 20.1749 20.3062 20.0202 20.2641L19.3874 20.0859C19.3539 20.0763 19.3233 20.0586 19.2983 20.0344L9.97018 10.7062C9.94595 10.6812 9.92824 10.6507 9.91862 10.6172L9.74049 9.98437C9.69831 9.82968 9.83893 9.68906 9.99362 9.73125L10.6264 9.90937C10.6592 9.91875 10.6921 9.9375 10.7155 9.96093L20.0436 19.2891C20.0671 19.3125 20.0858 19.3453 20.0952 19.3781Z" fill="#E5E5E5"/>
<path d="M13.2471 2.62032C15.6939 1.07344 19.3689 2.47969 22.3033 5.42344L25.0689 8.18907C25.1721 8.29219 25.2283 8.42813 25.2283 8.57344V9.05157C25.2283 9.35157 25.4721 9.59532 25.7674 9.59532L26.9861 9.60469C27.1268 9.60469 27.258 9.66094 27.3564 9.75938L27.8346 10.2375C28.2471 10.65 28.2471 11.3203 27.8346 11.7328L25.2986 14.2688C24.8861 14.6813 24.2158 14.6813 23.8033 14.2688L23.3111 13.7766C23.2221 13.6875 23.1705 13.5703 23.1564 13.4484L23.058 12.2906C23.0346 12.0141 22.8049 11.7984 22.5283 11.7891L21.9611 11.775C21.8205 11.7703 21.6893 11.7141 21.5908 11.6156L18.2064 8.23125C17.6439 7.64532 17.8408 6.81094 18.033 6.35157C18.3424 5.32032 17.1986 3.74532 16.3783 3.15938C15.5908 2.5875 14.5221 2.45157 13.2471 2.62032Z" fill="#506C72"/>
<path d="M2.92051 27.7453L2.12363 26.9484C1.76738 26.5922 1.76738 26.0109 2.12363 25.6547L18.8814 8.89688L20.9768 10.9922L4.21426 27.7453C3.85801 28.1063 3.27676 28.1063 2.92051 27.7453Z" fill="#FBD984"/>
<path d="M11.0675 16.7067L13.1623 18.802L5.13734 26.8261L3.04297 24.7308L11.0675 16.7067Z" fill="#687D87"/>
</svg>
